<?xml version="1.0" standalone="no"?>
<!DOCTYPE svg PUBLIC "-//W3C//DTD SVG 20010904//EN"
 "http://www.w3.org/TR/2001/REC-SVG-20010904/DTD/svg10.dtd">
<svg version="1.0" xmlns="http://www.w3.org/2000/svg"
 width="560.000000pt" height="560.000000pt" viewBox="0 0 560.000000 560.000000"
 preserveAspectRatio="xMidYMid meet">
<metadata>
Created by potrace 1.11, written by Peter Selinger 2001-2013
</metadata>
<g transform="translate(0.000000,560.000000) scale(0.100000,-0.100000)"
fill="#000000" stroke="none">
<path d="M3977 4921 c-96 -63 -227 -241 -331 -449 l-47 -94 -30 45 c-27 42
-113 125 -166 162 -20 14 -24 13 -43 -7 -30 -31 -44 -62 -67 -139 -25 -81 -24
-266 1 -379 10 -41 19 -85 22 -96 2 -12 22 -75 43 -140 22 -66 42 -150 46
-189 4 -38 9 -81 10 -95 2 -14 4 -35 4 -47 1 -19 18 -6 94 71 144 147 310 272
454 344 71 35 185 78 233 87 34 6 33 6 -20 -30 -131 -88 -316 -264 -518 -495
-75 -85 -145 -165 -156 -178 l-21 -24 60 8 c123 15 331 7 432 -17 27 -6 93
-33 148 -59 95 -45 212 -82 300 -94 22 -3 103 -9 179 -13 l139 -6 -6 32 c-5
25 -62 153 -94 212 -2 4 11 4 29 0 40 -8 151 10 233 39 92 32 265 120 272 138
5 10 -7 28 -36 53 -62 56 -122 87 -285 148 l-28 11 37 41 c20 23 52 74 71 113
33 69 96 268 108 337 3 19 8 44 10 55 2 12 7 37 10 55 3 19 8 45 11 59 5 22 8
45 20 130 2 14 7 53 10 87 l7 62 -39 10 c-78 23 -178 31 -306 26 -73 -2 -141
-6 -152 -9 -11 -2 -47 -7 -80 -11 -46 -5 -287 -49 -366 -67 -7 -2 -17 19 -24
51 -13 54 -89 215 -123 258 -17 23 -17 23 -45 4z"/>
<path d="M2625 3636 c-128 -42 -226 -124 -276 -229 -33 -72 -40 -102 -40 -177
0 -121 40 -218 125 -303 195 -193 518 -161 674 65 50 73 61 107 69 215 14 181
-112 364 -291 421 -73 23 -203 27 -261 8z m357 -211 c97 -47 96 -168 -2 -217
-117 -59 -257 34 -221 145 27 80 136 115 223 72z"/>
<path d="M1688 3211 c-141 -46 -243 -146 -287 -283 -30 -94 -18 -226 30 -319
70 -137 237 -234 396 -228 126 4 218 43 304 129 216 214 139 571 -148 689 -80
32 -215 38 -295 12z m359 -216 c41 -20 74 -86 63 -124 -15 -53 -32 -73 -77
-93 -32 -14 -58 -18 -89 -15 -54 7 -75 18 -109 59 -23 27 -26 39 -22 76 11
100 129 149 234 97z"/>
<path d="M3568 3095 c-2 -1 -21 -5 -44 -8 -165 -23 -314 -163 -348 -329 -30
-148 13 -285 123 -395 44 -44 141 -96 201 -108 287 -60 549 150 535 427 -4 92
-8 110 -42 177 -49 97 -145 178 -253 214 -41 14 -164 30 -172 22z m287 -249
c49 -32 59 -97 20 -138 -86 -93 -254 -13 -202 96 28 60 122 81 182 42z"/>
<path d="M2610 2669 c-67 -10 -143 -42 -197 -82 -76 -56 -116 -111 -149 -205
-34 -97 -29 -211 14 -305 67 -148 214 -245 378 -252 220 -9 409 136 448 342
16 85 12 142 -13 215 -68 197 -274 320 -481 287z m298 -220 c18 -6 43 -25 57
-43 78 -103 -39 -231 -174 -191 -136 41 -140 193 -5 240 39 13 65 12 122 -6z"/>
<path d="M1700 2247 c-3 -3 -20 -7 -38 -10 -59 -10 -158 -64 -210 -115 -133
-132 -164 -322 -81 -488 73 -147 222 -236 394 -236 171 0 318 95 392 250 55
117 52 257 -9 376 -46 89 -158 175 -273 208 -49 14 -166 24 -175 15z m305
-191 c77 -51 77 -151 0 -202 -83 -55 -211 -18 -237 67 -14 48 -5 80 32 117 50
50 143 58 205 18z"/>
<path d="M3435 2105 c-87 -20 -144 -52 -209 -118 -69 -68 -101 -127 -120 -220
-41 -202 96 -422 300 -482 261 -76 531 95 561 356 20 171 -46 306 -200 412
-80 55 -226 78 -332 52z m267 -154 c28 -1 87 -60 96 -95 11 -43 5 -69 -27
-103 -49 -54 -126 -67 -196 -33 -48 23 -75 64 -75 116 0 30 7 44 40 75 39 37
71 49 120 43 14 -1 33 -3 42 -3z"/>
<path d="M2474 1666 c-82 -30 -122 -57 -178 -116 -204 -218 -119 -568 164
-682 83 -33 232 -32 318 2 172 68 274 215 275 396 1 174 -106 331 -270 395
-85 33 -226 36 -309 5z m337 -146 c19 -5 48 -24 65 -41 24 -25 29 -39 29 -79
0 -40 -5 -54 -29 -79 -37 -38 -108 -57 -163 -42 -42 11 -102 63 -104 90 -7 72
16 115 76 142 46 21 75 23 126 9z"/>
<path d="M1655 1249 c-299 -46 -459 -362 -317 -627 34 -63 117 -140 187 -173
302 -142 646 73 630 394 -8 181 -119 328 -292 386 -71 24 -138 30 -208 20z
m238 -184 c38 -18 77 -72 77 -107 0 -35 -39 -90 -80 -111 -45 -23 -130 -18
-168 10 -38 27 -65 86 -57 122 7 35 48 79 89 96 35 15 96 11 139 -10z"/>
</g>
</svg>
