<svg id="Layer_1" data-name="Layer 1" xmlns="http://www.w3.org/2000/svg" viewBox="0 0 562.4 931.3"><defs><style>.cls-1{font-size:24.76px;fill:#d0b76d;}.cls-1,.cls-2{font-family:Montserrat;}.cls-2{font-size:8px;fill:#58595b;}.cls-3{fill:none;stroke:#d0b76d;stroke-linecap:round;stroke-linejoin:round;stroke-width:2px;}.cls-4{fill:#cfb56c;}.cls-5{fill:#faf5ea;}</style></defs><title>history</title><text class="cls-1" transform="translate(262.3 21)">1920</text><text class="cls-1" transform="translate(166.6 112)">1926</text><text class="cls-2" transform="translate(264.3 101.1)">French agronomists t<tspan x="85.4" y="0">r</tspan><tspan x="88.3" y="0">a</tspan><tspan x="92.8" y="0">v</tspan><tspan x="96.7" y="0">eled around almost</tspan><tspan x="0" y="10">all </tspan><tspan x="11.8" y="10">o</tspan><tspan x="16.8" y="10">f Bessa</tspan><tspan x="44.6" y="10">r</tspan><tspan x="47.5" y="10">abia looking </tspan><tspan x="99.3" y="10">f</tspan><tspan x="101.9" y="10">or the best areas</tspan><tspan x="0" y="20">f</tspan><tspan x="2.6" y="20">or viticulture. </tspan></text><text class="cls-1" transform="translate(262.3 205)">1927</text><text class="cls-2" transform="translate(33.7 195.5)">T<tspan x="4.1" y="0">he Lambr</tspan><tspan x="42.6" y="0">o</tspan><tspan x="47.5" y="0">v</tspan><tspan x="51.6" y="0">k</tspan><tspan x="56" y="0">a village </tspan><tspan x="91.2" y="0">w</tspan><tspan x="98.1" y="0">as </tspan><tspan x="109" y="0">f</tspan><tspan x="111.5" y="0">ounded p</tspan><tspan x="150.9" y="0">r</tspan><tspan x="153.8" y="0">acti</tspan><tspan x="168.5" y="0">c</tspan><tspan x="172.8" y="0">ally</tspan><tspan x="-33.7" y="10">as a greenfield si</tspan><tspan x="33.3" y="10">t</tspan><tspan x="36.4" y="10">e. </tspan><tspan x="45.4" y="10">T</tspan><tspan x="49.4" y="10">he Fund built 52 houses, a wine</tspan><tspan x="177.2" y="10">r</tspan><tspan x="180.4" y="10">y,</tspan><tspan x="-8.7" y="20">and a dai</tspan><tspan x="28.9" y="20">r</tspan><tspan x="32.2" y="20">y </tspan><tspan x="38.8" y="20">f</tspan><tspan x="41.2" y="20">arm. Around the village, 52 hectares</tspan><tspan x="72.7" y="30">o</tspan><tspan x="77.7" y="30">f vin</tspan><tspan x="94.5" y="30">e</tspan><tspan x="99.1" y="30">y</tspan><tspan x="103.1" y="30">ards </tspan><tspan x="122.6" y="30">w</tspan><tspan x="129.4" y="30">ere laid d</tspan><tspan x="167.3" y="30">o</tspan><tspan x="172.1" y="30">w</tspan><tspan x="179.2" y="30">n.</tspan></text><text class="cls-1" transform="translate(93.1 321.3)">1937-1957</text><text class="cls-2" transform="translate(264.3 311.5)">T<tspan x="4.1" y="0">he area </tspan><tspan x="36.4" y="0">w</tspan><tspan x="43.3" y="0">as ann</tspan><tspan x="69.5" y="0">e</tspan><tspan x="74.1" y="0">x</tspan><tspan x="78.2" y="0">ed </tspan><tspan x="91" y="0">b</tspan><tspan x="96.3" y="0">y the S</tspan><tspan x="123.7" y="0">o</tspan><tspan x="128.6" y="0">viet Union,</tspan><tspan x="0" y="10">but the J</tspan><tspan x="36.2" y="10">e</tspan><tspan x="40.9" y="10">wish </tspan><tspan x="61.6" y="10">c</tspan><tspan x="66" y="10">ommunity </tspan><tspan x="110.5" y="10">c</tspan><tspan x="114.8" y="10">ontinued </tspan><tspan x="154" y="10">t</tspan><tspan x="157.1" y="10">o </tspan><tspan x="164.6" y="10">e</tspan><tspan x="169.1" y="10">xist</tspan><tspan x="0" y="20">until the beginning </tspan><tspan x="80.1" y="20">o</tspan><tspan x="85.1" y="20">f </tspan><tspan x="90.3" y="20">W</tspan><tspan x="98.1" y="20">orld </tspan><tspan x="116.5" y="20">W</tspan><tspan x="124.3" y="20">ar II. </tspan></text><text class="cls-1" transform="translate(91.3 461.9)">1957-1997</text><text class="cls-2" transform="translate(267.8 452.4)">&quot;Grona&quot; (the n<tspan x="55.5" y="0">e</tspan><tspan x="60.2" y="0">w name </tspan><tspan x="95.4" y="0">o</tspan><tspan x="100.4" y="0">f wine</tspan><tspan x="124.8" y="0">r</tspan><tspan x="128.1" y="0">y) has been the leading </tspan><tspan x="0" y="10">winemaking en</tspan><tspan x="62.4" y="10">t</tspan><tspan x="65.6" y="10">erprise </tspan><tspan x="95.1" y="10">o</tspan><tspan x="100.1" y="10">f Tarutino district, which in turn</tspan><tspan x="0" y="20">is one </tspan><tspan x="26" y="20">o</tspan><tspan x="31" y="20">f the largest g</tspan><tspan x="86.6" y="20">r</tspan><tspan x="89.4" y="20">ape </tspan><tspan x="106.9" y="20">z</tspan><tspan x="111.1" y="20">ones in Uk</tspan><tspan x="153.3" y="20">r</tspan><tspan x="156.2" y="20">aine</tspan><tspan x="0" y="30">and the </tspan><tspan x="33.9" y="30">t</tspan><tspan x="37" y="30">erri</tspan><tspan x="50.1" y="30">t</tspan><tspan x="53.2" y="30">o</tspan><tspan x="58.3" y="30">r</tspan><tspan x="61.5" y="30">y </tspan><tspan x="68.1" y="30">o</tspan><tspan x="73.1" y="30">f the </tspan><tspan x="94.1" y="30">f</tspan><tspan x="96.7" y="30">ormer S</tspan><tspan x="128.5" y="30">o</tspan><tspan x="133.4" y="30">viet Union.</tspan></text><text class="cls-1" transform="translate(264.8 566.8)">1997-2000</text><text class="cls-2" transform="translate(1.7 558)">T<tspan x="4.1" y="0">he Blumberg </tspan><tspan x="59.5" y="0">f</tspan><tspan x="61.9" y="0">amily from Odesa bought a </tspan><tspan x="174.7" y="0">c</tspan><tspan x="179.1" y="0">ontrolling</tspan><tspan x="13.6" y="10">sta</tspan><tspan x="25.2" y="10">k</tspan><tspan x="29.7" y="10">e in the </tspan><tspan x="62.8" y="10">c</tspan><tspan x="67.2" y="10">ompa</tspan><tspan x="90.8" y="10">n</tspan><tspan x="96" y="10">y, which has thus be</tspan><tspan x="177.8" y="10">c</tspan><tspan x="182.2" y="10">ome one</tspan><tspan x="66.9" y="20">o</tspan><tspan x="71.9" y="20">f the first pri</tspan><tspan x="120.9" y="20">v</tspan><tspan x="124.9" y="20">a</tspan><tspan x="129.6" y="20">t</tspan><tspan x="132.7" y="20">e wineries in Uk</tspan><tspan x="196.5" y="20">r</tspan><tspan x="199.3" y="20">aine.</tspan></text><text class="cls-1" transform="translate(157.9 654.8)">2002</text><text class="cls-2" transform="translate(267.8 644.2)">A delegation <tspan x="53.8" y="0">o</tspan><tspan x="58.8" y="0">f the I</tspan><tspan x="82.2" y="0">C</tspan><tspan x="87.9" y="0">A </tspan><tspan x="96.2" y="0">f</tspan><tspan x="98.9" y="0">und headed </tspan><tspan x="150.6" y="0">b</tspan><tspan x="156" y="0">y its President,</tspan><tspan x="0" y="10">Baronet S</tspan><tspan x="39.3" y="10">t</tspan><tspan x="42.5" y="10">ephen </tspan><tspan x="70.7" y="10">W</tspan><tspan x="78.5" y="10">al</tspan><tspan x="85.5" y="10">e</tspan><tspan x="90.2" y="10">y-</tspan><tspan x="97.3" y="10">C</tspan><tspan x="102.8" y="10">ohen visi</tspan><tspan x="138" y="10">t</tspan><tspan x="141.1" y="10">ed Lambr</tspan><tspan x="179.8" y="10">o</tspan><tspan x="184.7" y="10">v</tspan><tspan x="188.7" y="10">k</tspan><tspan x="193.2" y="10">a.</tspan><tspan x="0" y="20">Representati</tspan><tspan x="51.1" y="20">v</tspan><tspan x="55" y="20">es </tspan><tspan x="66" y="20">o</tspan><tspan x="71" y="20">f the UK, F</tspan><tspan x="112.6" y="20">r</tspan><tspan x="115.5" y="20">an</tspan><tspan x="125.5" y="20">c</tspan><tspan x="129.9" y="20">e, and Is</tspan><tspan x="162.9" y="20">r</tspan><tspan x="165.8" y="20">ael inspec</tspan><tspan x="206.1" y="20">t</tspan><tspan x="209.3" y="20">ed</tspan><tspan x="0" y="30">the n</tspan><tspan x="21.2" y="30">e</tspan><tspan x="25.8" y="30">w vin</tspan><tspan x="46.9" y="30">e</tspan><tspan x="51.5" y="30">y</tspan><tspan x="55.5" y="30">ards, tas</tspan><tspan x="88.2" y="30">t</tspan><tspan x="91.4" y="30">ed wines and participa</tspan><tspan x="183.3" y="30">t</tspan><tspan x="186.4" y="30">ed</tspan><tspan x="0" y="40">in Lambr</tspan><tspan x="35.9" y="40">o</tspan><tspan x="40.8" y="40">v</tspan><tspan x="44.9" y="40">k</tspan><tspan x="49.3" y="40">a&apos;s 75th-anni</tspan><tspan x="100.9" y="40">v</tspan><tspan x="104.8" y="40">ersa</tspan><tspan x="121.1" y="40">r</tspan><tspan x="124.3" y="40">y </tspan><tspan x="130.9" y="40">c</tspan><tspan x="135.3" y="40">eleb</tspan><tspan x="152.6" y="40">r</tspan><tspan x="155.5" y="40">ations.</tspan></text><text class="cls-1" transform="translate(267.8 784.8)">2011-2016</text><text class="cls-2" transform="translate(59.9 773.6)">T<tspan x="4.1" y="0">he </tspan><tspan x="16.7" y="0">c</tspan><tspan x="21.1" y="0">ompa</tspan><tspan x="44.7" y="0">n</tspan><tspan x="49.9" y="0">y made the main emphasis</tspan><tspan x="-21" y="10">on the d</tspan><tspan x="13.2" y="10">ev</tspan><tspan x="21.8" y="10">elopment </tspan><tspan x="63.6" y="10">o</tspan><tspan x="68.6" y="10">f vin</tspan><tspan x="85.3" y="10">e</tspan><tspan x="90" y="10">y</tspan><tspan x="94" y="10">ards, production</tspan><tspan x="72.4" y="20">and bulk sale </tspan><tspan x="128.6" y="20">o</tspan><tspan x="133.6" y="20">f wine.</tspan></text><text class="cls-1" transform="translate(166.3 860.9)">2016</text><text class="cls-2" transform="translate(267.8 853.3)">#1 in bag-in-b<tspan x="57.7" y="0">o</tspan><tspan x="62.5" y="0">x in Uk</tspan><tspan x="90.2" y="0">r</tspan><tspan x="93.1" y="0">aine.</tspan></text><line class="cls-3" x1="243" y1="8.4" x2="243" y2="395.2"/><text class="cls-2" transform="translate(37.8 10.5)">Baron de Hirsch crea<tspan x="84.1" y="0">t</tspan><tspan x="87.2" y="0">ed a J</tspan><tspan x="111.1" y="0">e</tspan><tspan x="115.8" y="0">wish agricultu</tspan><tspan x="172.3" y="0">r</tspan><tspan x="175.1" y="0">al</tspan><tspan x="-9.4" y="10">c</tspan><tspan x="-5.1" y="10">ommune on the </tspan><tspan x="63.4" y="10">t</tspan><tspan x="66.5" y="10">erri</tspan><tspan x="79.6" y="10">t</tspan><tspan x="82.7" y="10">o</tspan><tspan x="87.8" y="10">r</tspan><tspan x="91" y="10">y </tspan><tspan x="97.6" y="10">o</tspan><tspan x="102.6" y="10">f the then Kingdom</tspan><tspan x="134" y="20">o</tspan><tspan x="139" y="20">f Romania.</tspan></text><path class="cls-4" d="M355.3,1270.3a10.7,10.7,0,0,0-14.6,2.9,10.1,10.1,0,0,0,2.9,14.3,10.7,10.7,0,0,0,14.6-2.9A10.1,10.1,0,0,0,355.3,1270.3Z" transform="translate(-106.5 -1174.4)"/><ellipse class="cls-5" cx="245.8" cy="101.1" rx="3.7" ry="3.2"/><path class="cls-4" d="M355.3,1362.6a10.7,10.7,0,0,0-14.6,2.9,10.1,10.1,0,0,0,2.9,14.3,10.7,10.7,0,0,0,14.6-2.9A10.1,10.1,0,0,0,355.3,1362.6Z" transform="translate(-106.5 -1174.4)"/><ellipse class="cls-5" cx="245.8" cy="193.5" rx="3.7" ry="3.2"/><path class="cls-4" d="M355.3,1480.4a10.7,10.7,0,0,0-14.6,2.9,10.1,10.1,0,0,0,2.9,14.3,10.7,10.7,0,0,0,14.6-2.9A10.1,10.1,0,0,0,355.3,1480.4Z" transform="translate(-106.5 -1174.4)"/><ellipse class="cls-5" cx="245.8" cy="311.2" rx="3.7" ry="3.2"/><line class="cls-3" x1="243" y1="395.2" x2="243" y2="890.9"/><path class="cls-4" d="M355.9,1723.9a10.7,10.7,0,0,0-14.6,2.9,10.1,10.1,0,0,0,2.9,14.3,10.7,10.7,0,0,0,14.6-2.9A10.1,10.1,0,0,0,355.9,1723.9Z" transform="translate(-106.5 -1174.4)"/><ellipse class="cls-5" cx="246.4" cy="554.7" rx="3.7" ry="3.2"/><path class="cls-4" d="M355.9,1812.7a10.7,10.7,0,0,0-14.6,2.9,10.1,10.1,0,0,0,2.9,14.3,10.7,10.7,0,0,0,14.6-2.9A10.1,10.1,0,0,0,355.9,1812.7Z" transform="translate(-106.5 -1174.4)"/><ellipse class="cls-5" cx="246.4" cy="643.5" rx="3.7" ry="3.2"/><path class="cls-4" d="M355,1941.7a10.7,10.7,0,0,0-14.6,2.9,10.1,10.1,0,0,0,2.9,14.3,10.7,10.7,0,0,0,14.6-2.9A10.1,10.1,0,0,0,355,1941.7Z" transform="translate(-106.5 -1174.4)"/><ellipse class="cls-5" cx="245.4" cy="772.5" rx="3.7" ry="3.2"/><path class="cls-4" d="M355.9,2018.5a10.7,10.7,0,0,0-14.6,2.9,10.1,10.1,0,0,0,2.9,14.3,10.7,10.7,0,0,0,14.6-2.9A10.1,10.1,0,0,0,355.9,2018.5Z" transform="translate(-106.5 -1174.4)"/><ellipse class="cls-5" cx="246.4" cy="849.3" rx="3.7" ry="3.2"/><path class="cls-4" d="M345.5,2079.9a4.1,4.1,0,0,0-5.6,1.1,3.9,3.9,0,0,0,1.1,5.5,4.1,4.1,0,0,0,5.6-1.1A3.9,3.9,0,0,0,345.5,2079.9Zm-1.2,3.3a1.2,1.2,0,1,1,1.4-1.2A1.3,1.3,0,0,1,344.3,2083.2Z" transform="translate(-106.5 -1174.4)"/><path class="cls-4" d="M345.5,2089.2a4.1,4.1,0,0,0-5.6,1.1,3.9,3.9,0,0,0,1.1,5.5,4.1,4.1,0,0,0,5.6-1.1A3.9,3.9,0,0,0,345.5,2089.2Zm-1.2,3.3a1.2,1.2,0,1,1,1.4-1.2A1.3,1.3,0,0,1,344.3,2092.5Z" transform="translate(-106.5 -1174.4)"/><path class="cls-4" d="M345.5,2098.5a4.1,4.1,0,0,0-5.6,1.1,3.9,3.9,0,0,0,1.1,5.5,4.1,4.1,0,0,0,5.6-1.1A3.9,3.9,0,0,0,345.5,2098.5Zm-1.2,3.3a1.2,1.2,0,1,1,1.4-1.2A1.3,1.3,0,0,1,344.3,2101.7Z" transform="translate(-106.5 -1174.4)"/><path class="cls-4" d="M354.1,2075.3a4.1,4.1,0,0,0-5.6,1.1,3.9,3.9,0,0,0,1.1,5.5,4.1,4.1,0,0,0,5.6-1.1A3.9,3.9,0,0,0,354.1,2075.3Zm-1.2,3.3a1.2,1.2,0,1,1,1.4-1.2A1.3,1.3,0,0,1,353,2078.5Z" transform="translate(-106.5 -1174.4)"/><path class="cls-4" d="M354.1,2084.6a4.1,4.1,0,0,0-5.6,1.1,3.9,3.9,0,0,0,1.1,5.5,4.1,4.1,0,0,0,5.6-1.1A3.9,3.9,0,0,0,354.1,2084.6Zm-1.2,3.3a1.2,1.2,0,1,1,1.4-1.2A1.3,1.3,0,0,1,353,2087.8Z" transform="translate(-106.5 -1174.4)"/><path class="cls-4" d="M354.1,2093.8a4.1,4.1,0,0,0-5.6,1.1,3.9,3.9,0,0,0,1.1,5.5,4.1,4.1,0,0,0,5.6-1.1A3.9,3.9,0,0,0,354.1,2093.8Zm-1.2,3.3a1.2,1.2,0,1,1,1.4-1.2A1.3,1.3,0,0,1,353,2097.1Z" transform="translate(-106.5 -1174.4)"/><path class="cls-4" d="M362.8,2079.9a4.1,4.1,0,0,0-5.6,1.1,3.9,3.9,0,0,0,1.1,5.5,4.1,4.1,0,0,0,5.6-1.1A3.9,3.9,0,0,0,362.8,2079.9Zm-1.2,3.3a1.2,1.2,0,1,1,1.4-1.2A1.3,1.3,0,0,1,361.6,2083.2Z" transform="translate(-106.5 -1174.4)"/><path class="cls-4" d="M362.8,2089.2a4.1,4.1,0,0,0-5.6,1.1,3.9,3.9,0,0,0,1.1,5.5,4.1,4.1,0,0,0,5.6-1.1A3.9,3.9,0,0,0,362.8,2089.2Zm-1.2,3.3a1.2,1.2,0,1,1,1.4-1.2A1.3,1.3,0,0,1,361.6,2092.5Z" transform="translate(-106.5 -1174.4)"/><path class="cls-4" d="M374,2074.5c-0.9-1.3-3.5-1.9-3.5-1.9,2.5-2,2.4-8.8,2.4-8.8a18.5,18.5,0,0,0-8.9.9c0-1.2-1.5-3.1-1.5-3.1-2.3,1.8-3.6,5.5-3.6,5.5a6.5,6.5,0,0,0-2.2-2.1c-2.1,2.4-.8,5.2.1,6.9a10.6,10.6,0,0,1,.7,3.3,0.1,0.1,0,0,0,.2.1,16.9,16.9,0,0,1,7.5-5.5,0.1,0.1,0,0,1,.1.1c-2,1.3-5.4,5.4-6.8,7.2a0.1,0.1,0,0,0,.1.2,8.2,8.2,0,0,1,5.7.5c2,1,5.7.8,5.7,0.8a8.2,8.2,0,0,0-1.1-2.3C370.5,2076.8,374,2074.5,374,2074.5Z" transform="translate(-106.5 -1174.4)"/><path class="cls-4" d="M355.9,1620a10.7,10.7,0,0,0-14.6,2.9,10.1,10.1,0,0,0,2.9,14.3,10.7,10.7,0,0,0,14.6-2.9A10.1,10.1,0,0,0,355.9,1620Z" transform="translate(-106.5 -1174.4)"/><ellipse class="cls-5" cx="246.4" cy="450.8" rx="3.7" ry="3.2"/><path class="cls-4" d="M355.3,1177.6a10.7,10.7,0,0,0-14.6,2.9,10.1,10.1,0,0,0,2.9,14.3,10.7,10.7,0,0,0,14.6-2.9A10.1,10.1,0,0,0,355.3,1177.6Z" transform="translate(-106.5 -1174.4)"/><ellipse class="cls-5" cx="245.8" cy="8.5" rx="3.7" ry="3.2"/><text x="-106.5" y="-1174.4"/></svg>